<?xml version="1.0" encoding="utf-8"?>
<!-- Generator: Adobe Illustrator 15.0.0, SVG Export Plug-In  -->
<!DOCTYPE svg PUBLIC "-//W3C//DTD SVG 1.1//EN" "http://www.w3.org/Graphics/SVG/1.1/DTD/svg11.dtd" [
	<!ENTITY ns_flows "http://ns.adobe.com/Flows/1.0/">
]>
<svg version="1.1"
	 xmlns="http://www.w3.org/2000/svg" xmlns:xlink="http://www.w3.org/1999/xlink" xmlns:a="http://ns.adobe.com/AdobeSVGViewerExtensions/3.0/"
	 x="0px" y="0px" width="939px" height="474px" viewBox="0.041 -0.107 939 474" enable-background="new 0.041 -0.107 939 474"
	 xml:space="preserve">
<defs>
</defs>
<path fill="#D3EEF9" d="M10,476.5C10,217.754,215.277,8,468.5,8S927,217.754,927,476.5"/>
<rect x="210.005" y="112.052" fill="#E6E6E6" width="527.5" height="296.662"/>
<path display="none" fill="#FFFFFF" d="M728,345c0,6.627-5.373,12-12,12H230c-6.627,0-12-5.373-12-12V148c0-6.627,5.373-12,12-12
	h486c6.627,0,12,5.373,12,12V345z"/>
<rect x="227.989" y="124" fill="none" width="500.011" height="264"/>
<text transform="matrix(1 0 0 1 227.9888 136.75)"><tspan x="0" y="0" font-family="'Roboto-Bold'" font-size="17">Señores Colombia movil-tigo</tspan><tspan x="0" y="40.8" font-family="'Roboto-Light'" font-size="17">El equipo </tspan><tspan x="72.101" y="40.8" font-family="'Roboto-Medium'" font-size="17">Fluguel </tspan><tspan x="132.007" y="40.8" font-family="'Roboto-Light'" font-size="17">agradece la  atención y tiempo brindado en la </tspan><tspan x="0" y="61.2" font-family="'Roboto-Light'" font-size="17">reunión anterior.El presente correo tiene como objetivo acordar la </tspan><tspan x="0" y="81.6" font-family="'Roboto-Light'" font-size="17">fecha para la presentación y prueba  del DEMO de la </tspan><tspan x="390.053" y="81.6" font-family="'Roboto-Italic'" font-size="17">Plataforma de </tspan><tspan x="0" y="102" font-family="'Roboto-Italic'" font-size="17">Gestión de turnos y control de flujo en atención al cliente</tspan><tspan x="419.391" y="102" font-family="'Roboto-Light'" font-size="17">,  que  </tspan><tspan x="0" y="122.4" font-family="'Roboto-Light'" font-size="17">acordamos en la reunión sostenida hace dos semanas.</tspan><tspan x="0" y="142.8" font-family="'Roboto-Light'" font-size="17">Si una vez probado el DEMO este llena sus expectativas, nuestra </tspan><tspan x="0" y="163.2" font-family="'Roboto-Light'" font-size="17">intención es realizar  una prueba piloto en los términos que se acu</tspan><tspan x="489.148" y="163.2" font-family="'Roboto-Light'" font-size="17">-</tspan><tspan x="0" y="183.6" font-family="'Roboto-Light'" font-size="17">erden, en esta etapa se presentará la documentación correspondi</tspan><tspan x="485.589" y="183.6" font-family="'Roboto-Light'" font-size="17">-</tspan><tspan x="0" y="204" font-family="'Roboto-Light'" font-size="17">ente  a cronograma de implementación y características funcion</tspan><tspan x="477.476" y="204" font-family="'Roboto-Light'" font-size="17">-</tspan><tspan x="0" y="224.4" font-family="'Roboto-Light'" font-size="17">ales de la Plataforma.</tspan></text>
<g id="XMLID_5_">
	<g>
		<path fill="#DFE5E5" d="M833,431.975v28.417h-40.024H143.688H109v-28.417h80.049h216.578c-3.683,0-6.671,3.186-6.671,7.109v0.948
			c0,3.905,2.988,7.108,6.671,7.108h132.525c3.683,0,6.671-3.203,6.671-7.108v-0.948c0-3.924-2.988-7.109-6.671-7.109H754.73H833z"
			/>
		<path fill="#9E9E9E" d="M793.865,475.577h-0.89h-644.84h-3.416c-9.517-0.152-35.72-1.782-35.72-15.186h34.688h649.288H833
			C833,476.771,793.865,475.577,793.865,475.577z"/>
		<path d="M754.73,84.677v347.297H538.152H405.627H189.049V87.597v-2.37c0-13.042,10.371-21.403,19.905-21.403l525.443,0.36
			C743.576,64.185,754.001,72.469,754.73,84.677z M733.384,115.388V98.327H251.487h-41.092v17.062v284.36h522.988V115.388z"/>
		<path fill="#C4C4C4" d="M733.384,98.327v17.062H251.487v-3.336c2.74,0,4.963-2.237,4.963-5.024s-2.224-5.042-4.963-5.042v-3.659
			H733.384z"/>
		<path fill="#9E9E9E" d="M544.823,439.084v0.948c0,3.905-2.988,7.108-6.671,7.108H405.627c-3.683,0-6.671-3.203-6.671-7.108v-0.948
			c0-3.924,2.988-7.109,6.671-7.109h132.525C541.835,431.975,544.823,435.16,544.823,439.084z"/>
		<path fill="#5BC64F" d="M251.487,101.985c2.74,0,4.963,2.256,4.963,5.042s-2.224,5.024-4.963,5.024
			c-2.739,0-4.945-2.237-4.945-5.024S248.748,101.985,251.487,101.985z"/>
		<path fill="#C4C4C4" d="M251.487,112.052v3.336h-41.092V98.327h41.092v3.659c-2.739,0-4.945,2.256-4.945,5.042
			S248.748,112.052,251.487,112.052z M242.22,107.028c0-2.787-2.224-5.042-4.963-5.042c-2.739,0-4.945,2.256-4.945,5.042
			s2.206,5.024,4.945,5.024C239.996,112.052,242.22,109.814,242.22,107.028z M227.989,107.028c0-2.787-2.224-5.042-4.963-5.042
			c-2.739,0-4.945,2.256-4.945,5.042s2.206,5.024,4.945,5.024C225.765,112.052,227.989,109.814,227.989,107.028z"/>
		<path fill="#D8D841" d="M237.256,101.985c2.74,0,4.963,2.256,4.963,5.042s-2.224,5.024-4.963,5.024
			c-2.739,0-4.945-2.237-4.945-5.024S234.517,101.985,237.256,101.985z"/>
		<path fill="#CE3636" d="M223.025,101.985c2.74,0,4.963,2.256,4.963,5.042s-2.224,5.024-4.963,5.024
			c-2.739,0-4.945-2.237-4.945-5.024S220.286,101.985,223.025,101.985z"/>
	</g>
	<g>
	</g>
</g>
<linearGradient id="SVGID_1_" gradientUnits="userSpaceOnUse" x1="-754.7466" y1="106.4932" x2="100.0182" y2="106.4932" gradientTransform="matrix(-0.347 0 0 1 140.3885 0)">
	<stop  offset="0" style="stop-color:#FFFFFF"/>
	<stop  offset="1" style="stop-color:#000000"/>
</linearGradient>
<path opacity="0.24" fill="url(#SVGID_1_)" d="M331.106,107.726c3.352,0.049,6.702,0.113,10.053,0.201
	c0.263-0.043,0.524-0.085,0.786-0.128c0.806-0.919,1.99-1.545,3.561-1.584c2.123-0.052,4.248-0.068,6.377-0.062
	c2.367-0.384,4.735-0.75,7.104-1.093c-9.797,0.646-19.588,1.567-29.341,2.38C330.133,107.533,330.621,107.625,331.106,107.726z"/>
<linearGradient id="SVGID_2_" gradientUnits="userSpaceOnUse" x1="-754.7446" y1="247.9189" x2="100.0122" y2="247.9189" gradientTransform="matrix(-0.347 0 0 1 140.3885 0)">
	<stop  offset="0" style="stop-color:#FFFFFF"/>
	<stop  offset="1" style="stop-color:#000000"/>
</linearGradient>
<path opacity="0.24" fill="url(#SVGID_2_)" d="M486.791,399.738H314.006c-3.945,0.174-55.984,0.109-58,0.226
	c-0.185,0.084-12.938-0.065-15.859,0.097c-4.348,0.241-14.407-0.79-21.48-0.313c-3.417,0.23-5.98,0.109-7.292,0
	c-0.633-0.053-0.979,1.019-0.979,0c0-12.081-0.396-56.738-0.396-59.747c0,0,0.006-67.848,0.006-75.287
	c0-10.7-0.827-86.358-0.337-94.121c0.231-3.667,0.626-7.331,0.759-11.004c0.048-1.347,0.1-2.704,0.063-4.055
	c-0.04-0.136-0.082-0.28-0.127-0.44c-0.62-2.206-0.877-4.437-0.838-6.638c-0.008-0.247-0.02-0.494-0.02-0.742
	c0-3.694,0.059-40.156,0.896-49.396c0,0,1.104,0,6.354,0.021c2.375,0.01,139.266,0.499,153.875-0.021
	c-49.465-22.015-108.458-34.142-108.458-34.142l-54.856-0.15c-1.001,0-2.021,0.252-3.411,0.549
	c-0.488,0.104-2.911,1.345-3.403,1.378c-2.977,1.872-2.011,1.175-4.287,3.262l-1.709,362.186l296.601,0.413
	C491.106,431.813,490.241,423.457,486.791,399.738z"/>
<line fill="#29ABE2" stroke="#8ED5EE" stroke-width="4" stroke-miterlimit="10" x1="145" y1="126" x2="145" y2="151"/>
<line fill="#29ABE2" stroke="#8ED5EE" stroke-width="4" stroke-miterlimit="10" x1="133" y1="139" x2="158" y2="139"/>
<line fill="#29ABE2" stroke="#8ED5EE" stroke-width="5" stroke-miterlimit="10" x1="143.5" y1="282" x2="143.5" y2="314"/>
<line fill="#29ABE2" stroke="#8ED5EE" stroke-width="5" stroke-miterlimit="10" x1="128" y1="298.5" x2="160" y2="298.5"/>
<line fill="#29ABE2" stroke="#8ED5EE" stroke-width="1.96" stroke-miterlimit="10" x1="779.732" y1="237.198" x2="785.047" y2="248.235"/>
<line fill="#29ABE2" stroke="#8ED5EE" stroke-width="1.96" stroke-miterlimit="10" x1="777.199" y1="245.489" x2="788.235" y2="240.174"/>
<line fill="#29ABE2" stroke="#8ED5EE" stroke-width="4" stroke-miterlimit="10" x1="793" y1="205" x2="793" y2="230"/>
<line fill="#29ABE2" stroke="#8ED5EE" stroke-width="4" stroke-miterlimit="10" x1="781" y1="218" x2="806" y2="218"/>
<line fill="#29ABE2" stroke="#8ED5EE" stroke-width="5" stroke-miterlimit="10" x1="812.5" y1="90" x2="812.5" y2="122"/>
<line fill="#29ABE2" stroke="#8ED5EE" stroke-width="5" stroke-miterlimit="10" x1="797" y1="106.5" x2="829" y2="106.5"/>
<line fill="#29ABE2" stroke="#8ED5EE" stroke-width="4" stroke-miterlimit="10" x1="829" y1="363" x2="829" y2="388"/>
<line fill="#29ABE2" stroke="#8ED5EE" stroke-width="4" stroke-miterlimit="10" x1="817" y1="376" x2="842" y2="376"/>
<line fill="#29ABE2" stroke="#8ED5EE" stroke-width="1.96" stroke-miterlimit="10" x1="125.732" y1="341.198" x2="131.047" y2="352.234"/>
<line fill="#29ABE2" stroke="#8ED5EE" stroke-width="1.96" stroke-miterlimit="10" x1="123.199" y1="349.488" x2="134.235" y2="344.174"/>
<rect id="_x3C_Sector_x3E__2_" fill="none" width="939" height="474"/>
<rect x="460" y="131" display="none" fill="#E6E6E6" width="214" height="344"/>
<rect x="460.5" y="108.605" display="none" fill="#FFFFFF" stroke="#CCCCCC" stroke-miterlimit="10" width="213.334" height="31"/>
<rect x="491" y="156" display="none" fill="#FFFFFF" width="150" height="21"/>
<ellipse display="none" opacity="0.6" fill="#0000FF" cx="480.289" cy="125.561" rx="11.754" ry="11.225"/>
<path display="none" fill="#E6E6E6" d="M547,166.75c0,1.243-0.903,2.25-1.606,2.25h-46.12c-0.703,0-1.273-1.007-1.273-2.25v-0.5
	c0-1.243,0.57-2.25,1.273-2.25h46.12c0.703,0,1.606,1.007,1.606,2.25V166.75z"/>
<rect x="491" y="203" display="none" fill="#FFFFFF" width="150" height="21"/>
<ellipse display="none" fill="#E6E6E6" cx="504.238" cy="213.644" rx="7.703" ry="7.308"/>
<path display="none" fill="#E6E6E6" d="M565,213.75c0,1.243-0.903,2.25-1.606,2.25h-46.12c-0.703,0-1.273-1.007-1.273-2.25v-0.5
	c0-1.243,0.57-2.25,1.273-2.25h46.12c0.703,0,1.606,1.007,1.606,2.25V213.75z"/>
<rect x="597" y="208" display="none" opacity="0.6" fill="#CCCCCC" width="17" height="11"/>
<rect x="614" y="208" display="none" opacity="0.6" fill="#CE3636" width="17" height="11"/>
<rect x="491" y="224" display="none" fill="#FFFFFF" width="150" height="21"/>
<ellipse display="none" fill="#E6E6E6" cx="504.238" cy="234.644" rx="7.703" ry="7.308"/>
<path display="none" fill="#E6E6E6" d="M565,234.75c0,1.243-0.903,2.25-1.606,2.25h-46.12c-0.703,0-1.273-1.007-1.273-2.25v-0.5
	c0-1.243,0.57-2.25,1.273-2.25h46.12c0.703,0,1.606,1.007,1.606,2.25V234.75z"/>
<rect x="597" y="229" display="none" opacity="0.6" fill="#5BC64F" width="17" height="11"/>
<rect x="614" y="229" display="none" opacity="0.6" fill="#CCCCCC" width="17" height="11"/>
<rect x="491" y="245" display="none" fill="#FFFFFF" width="150" height="21"/>
<ellipse display="none" fill="#E6E6E6" cx="504.238" cy="255.644" rx="7.703" ry="7.308"/>
<path display="none" fill="#E6E6E6" d="M565,255.75c0,1.243-0.903,2.25-1.606,2.25h-46.12c-0.703,0-1.273-1.007-1.273-2.25v-0.5
	c0-1.243,0.57-2.25,1.273-2.25h46.12c0.703,0,1.606,1.007,1.606,2.25V255.75z"/>
<rect x="597" y="250" display="none" opacity="0.6" fill="#CCCCCC" width="17" height="11"/>
<rect x="614" y="250" display="none" opacity="0.6" fill="#CE3636" width="17" height="11"/>
<rect x="491" y="266" display="none" fill="#FFFFFF" width="150" height="21"/>
<ellipse display="none" fill="#E6E6E6" cx="504.238" cy="276.644" rx="7.703" ry="7.308"/>
<path display="none" fill="#E6E6E6" d="M565,276.75c0,1.243-0.903,2.25-1.606,2.25h-46.12c-0.703,0-1.273-1.007-1.273-2.25v-0.5
	c0-1.243,0.57-2.25,1.273-2.25h46.12c0.703,0,1.606,1.007,1.606,2.25V276.75z"/>
<rect x="597" y="271" display="none" opacity="0.6" fill="#5BC64F" width="17" height="11"/>
<rect x="614" y="271" display="none" opacity="0.6" fill="#E7E7E7" width="17" height="11"/>
<rect x="491" y="287" display="none" fill="#FFFFFF" width="150" height="21"/>
<ellipse display="none" fill="#E6E6E6" cx="504.238" cy="297.644" rx="7.703" ry="7.308"/>
<path display="none" fill="#E6E6E6" d="M565,297.75c0,1.243-0.903,2.25-1.606,2.25h-46.12c-0.703,0-1.273-1.007-1.273-2.25v-0.5
	c0-1.243,0.57-2.25,1.273-2.25h46.12c0.703,0,1.606,1.007,1.606,2.25V297.75z"/>
<rect x="597" y="292" display="none" opacity="0.6" fill="#5BC64F" width="17" height="11"/>
<rect x="614" y="292" display="none" opacity="0.6" fill="#E7E7E7" width="17" height="11"/>
<rect x="491" y="308" display="none" fill="#FFFFFF" width="150" height="21"/>
<ellipse display="none" fill="#E6E6E6" cx="504.238" cy="318.644" rx="7.703" ry="7.308"/>
<path display="none" fill="#E6E6E6" d="M565,318.75c0,1.242-0.903,2.25-1.606,2.25h-46.12c-0.703,0-1.273-1.008-1.273-2.25v-0.5
	c0-1.242,0.57-2.25,1.273-2.25h46.12c0.703,0,1.606,1.008,1.606,2.25V318.75z"/>
<rect x="597" y="313" display="none" opacity="0.6" fill="#CCCCCC" width="17" height="11"/>
<rect x="614" y="313" display="none" opacity="0.6" fill="#CE3636" width="17" height="11"/>
<rect x="491" y="329" display="none" fill="#FFFFFF" width="150" height="21"/>
<ellipse display="none" fill="#E6E6E6" cx="504.238" cy="339.644" rx="7.703" ry="7.308"/>
<path display="none" fill="#E6E6E6" d="M565,339.75c0,1.242-0.903,2.25-1.606,2.25h-46.12c-0.703,0-1.273-1.008-1.273-2.25v-0.5
	c0-1.242,0.57-2.25,1.273-2.25h46.12c0.703,0,1.606,1.008,1.606,2.25V339.75z"/>
<rect x="597" y="334" display="none" opacity="0.6" fill="#CCCCCC" width="17" height="11"/>
<rect x="614" y="334" display="none" opacity="0.6" fill="#CE3636" width="17" height="11"/>
<ellipse display="none" opacity="0.5" fill="#0000FF" cx="634.289" cy="409.561" rx="11.754" ry="11.225"/>
<g id="XMLID_4_" display="none">
	<g display="inline">
		<path fill="#232323" d="M670.496,507.49c-0.01,0-0.02,0-0.029,0c-0.431,0.04-0.86,0.061-1.301,0.061h-203.66
			c-0.01,0-0.01,0-0.01,0c-7-0.011-12.66-5.37-12.66-12v-414c0-5.18,3.46-9.59,8.31-11.27c1.36-0.47,2.83-0.73,4.36-0.73h203.66
			c1.75,0,3.42,0.34,4.931,0.94c4.55,1.82,7.739,6.09,7.739,11.06v414C681.836,501.761,676.866,506.86,670.496,507.49z
			 M673.836,470.551v-361h-212v361H673.836z M576.757,84.22c0-4.24-3.561-7.67-7.96-7.67c-4.4,0-7.961,3.43-7.961,7.67
			c0,4.24,3.561,7.67,7.961,7.67C573.196,91.89,576.757,88.46,576.757,84.22z"/>
		<path fill="#232323" d="M674.387,69.81l-0.29,0.68c-1.511-0.6-3.181-0.94-4.931-0.94h-203.66c-1.53,0-3,0.26-4.36,0.73l-0.09-0.26
			c15.39-5.36,59.029-12.23,105.34-12.27c0.15,0,0.29,0,0.439,0C616.477,57.791,661.326,64.15,674.387,69.81z"/>
		<path fill="#232323" d="M669.166,507.551c0.44,0,0.87-0.021,1.301-0.061c-17.28,5.16-58.021,10.3-102.631,10.33
			c-0.149,0-0.289,0-0.439,0c-43.37-0.04-84.25-5.22-101.89-10.27H669.166z"/>
		<path fill="#444444" d="M568.797,76.55c4.399,0,7.96,3.43,7.96,7.67c0,4.24-3.561,7.67-7.96,7.67c-4.4,0-7.961-3.43-7.961-7.67
			C560.836,79.98,564.396,76.55,568.797,76.55z"/>
	</g>
	<g display="inline">
	</g>
</g>
<linearGradient id="SVGID_3_" gradientUnits="userSpaceOnUse" x1="-1366.4316" y1="87.25" x2="-728.4501" y2="87.25" gradientTransform="matrix(-0.347 0 0 1 140.3885 0)">
	<stop  offset="0" style="stop-color:#FFFFFF"/>
	<stop  offset="1" style="stop-color:#000000"/>
</linearGradient>
<path display="none" opacity="0.24" fill="url(#SVGID_3_)" d="M519.813,64l-60.356,6.55l25.166,39.95
	c0.743-0.115,1.494-0.184,2.247-0.231c2.691-1.065,5.604-1.557,8.631-1.269c7.646,0.728,15.252,1.374,22.881,1.129
	c6.557-0.73,13.064-1.095,19.799-1.223c20.455-0.388,40.914-1.432,61.32,0.594c0.925,0.092,1.839,0.225,2.74,0.391
	c0.889-0.008,1.777-0.017,2.665-0.002C576.524,72.858,519.813,64,519.813,64z"/>
<linearGradient id="SVGID_4_" gradientUnits="userSpaceOnUse" x1="-1366.4326" y1="164.814" x2="-728.4861" y2="164.814" gradientTransform="matrix(-0.347 0 0 1 140.3885 0)">
	<stop  offset="0" style="stop-color:#FFFFFF"/>
	<stop  offset="1" style="stop-color:#000000"/>
</linearGradient>
<path display="none" opacity="0.24" fill="url(#SVGID_4_)" d="M629.597,171.758c-1.821-4.904-3.491-9.552-4.983-13.889
	c-2.426,0.972-5.006,1.546-7.635,1.668C622.19,162.399,626.982,166.689,629.597,171.758z"/>
<linearGradient id="SVGID_5_" gradientUnits="userSpaceOnUse" x1="-1366.4233" y1="213.9263" x2="-728.3808" y2="213.9263" gradientTransform="matrix(-0.347 0 0 1 140.3885 0)">
	<stop  offset="0" style="stop-color:#FFFFFF"/>
	<stop  offset="1" style="stop-color:#000000"/>
</linearGradient>
<path display="none" opacity="0.24" fill="url(#SVGID_5_)" d="M647.377,216.608c-0.747-1.799-1.488-3.59-2.219-5.364
	c-0.385,1.237-0.835,2.45-1.37,3.623c0.094,0.412,0.167,0.826,0.243,1.24C645.149,216.194,646.268,216.358,647.377,216.608z"/>
<linearGradient id="SVGID_6_" gradientUnits="userSpaceOnUse" x1="-1366.4287" y1="345.46" x2="-728.4365" y2="345.46" gradientTransform="matrix(-0.347 0 0 1 140.3885 0)">
	<stop  offset="0" style="stop-color:#FFFFFF"/>
	<stop  offset="1" style="stop-color:#000000"/>
</linearGradient>
<path display="none" opacity="0.24" fill="url(#SVGID_6_)" d="M680.5,368.289c-0.324-13.841-0.189-27.853,0-43.714
	c0.072-6.057,0.107-13.471,0.233-20.294c0.05-2.705-0.063-5.138-0.047-7.697c0.009-1.285,0.303-2.625-0.279-3.919
	c-3.382-7.516-6.769-15.127-10.132-22.745c-0.108,1.319-0.313,2.643-0.633,3.96c-0.153,0.633-0.274,1.757-0.347,2.56
	c-0.012,0.432-0.023,0.865-0.024,1.297c0.028,2.96,0.182,5.908,0.431,8.858c0.5,5.94,0.898,11.785,0.735,17.749
	c-0.323,11.822-0.002,23.64,0.051,35.463c0.102,22.599,2.036,45.227,1.31,67.823l8.423,13.37c0,0,0.617-8.887,0.615-24.497
	C680.835,388.679,680.746,378.775,680.5,368.289z"/>
</svg>
