<?xml version="1.0" encoding="utf-8"?>
<!-- Generator: Adobe Illustrator 15.0.0, SVG Export Plug-In  -->
<!DOCTYPE svg PUBLIC "-//W3C//DTD SVG 1.1//EN" "http://www.w3.org/Graphics/SVG/1.1/DTD/svg11.dtd" [
	<!ENTITY ns_flows "http://ns.adobe.com/Flows/1.0/">
]>
<svg version="1.1"
	 xmlns="http://www.w3.org/2000/svg" xmlns:xlink="http://www.w3.org/1999/xlink" xmlns:a="http://ns.adobe.com/AdobeSVGViewerExtensions/3.0/"
	 x="0px" y="0px" width="939px" height="751px" viewBox="0.041 473.893 939 751" enable-background="new 0.041 473.893 939 751"
	 xml:space="preserve">
<defs>
</defs>
<path fill="#D3EEF9" d="M10,476.5C10,217.754,215.277,8,468.5,8S927,217.754,927,476.5"/>
<g id="XMLID_5_">
	<g>
		<path fill="#DFE5E5" d="M833,431.975v28.417h-40.024H143.688H109v-28.417h80.049h216.578c-3.683,0-6.671,3.186-6.671,7.109v0.948
			c0,3.905,2.988,7.108,6.671,7.108h132.525c3.683,0,6.671-3.203,6.671-7.108v-0.948c0-3.924-2.988-7.109-6.671-7.109H754.73H833z"
			/>
		<path fill="#9E9E9E" d="M793.865,475.577h-0.89h-644.84h-3.416c-9.517-0.152-35.72-1.782-35.72-15.186h34.688h649.288H833
			C833,476.771,793.865,475.577,793.865,475.577z"/>
		<path d="M754.73,84.677v347.297H538.152H405.627H189.049V87.597v-2.37c0-13.042,10.371-21.403,19.905-21.403l525.443,0.36
			C743.576,64.185,754.001,72.469,754.73,84.677z M733.384,115.388V98.327H251.487h-41.092v17.062v284.36h522.988V115.388z"/>
		<path fill="#C4C4C4" d="M733.384,98.327v17.062H251.487v-3.336c2.74,0,4.963-2.237,4.963-5.024s-2.224-5.042-4.963-5.042v-3.659
			H733.384z"/>
		<path fill="#9E9E9E" d="M544.823,439.084v0.948c0,3.905-2.988,7.108-6.671,7.108H405.627c-3.683,0-6.671-3.203-6.671-7.108v-0.948
			c0-3.924,2.988-7.109,6.671-7.109h132.525C541.835,431.975,544.823,435.16,544.823,439.084z"/>
		<path fill="#5BC64F" d="M251.487,101.985c2.74,0,4.963,2.256,4.963,5.042s-2.224,5.024-4.963,5.024
			c-2.739,0-4.945-2.237-4.945-5.024S248.748,101.985,251.487,101.985z"/>
		<path fill="#C4C4C4" d="M251.487,112.052v3.336h-41.092V98.327h41.092v3.659c-2.739,0-4.945,2.256-4.945,5.042
			S248.748,112.052,251.487,112.052z M242.22,107.028c0-2.787-2.224-5.042-4.963-5.042c-2.739,0-4.945,2.256-4.945,5.042
			s2.206,5.024,4.945,5.024C239.996,112.052,242.22,109.814,242.22,107.028z M227.989,107.028c0-2.787-2.224-5.042-4.963-5.042
			c-2.739,0-4.945,2.256-4.945,5.042s2.206,5.024,4.945,5.024C225.765,112.052,227.989,109.814,227.989,107.028z"/>
		<path fill="#D8D841" d="M237.256,101.985c2.74,0,4.963,2.256,4.963,5.042s-2.224,5.024-4.963,5.024
			c-2.739,0-4.945-2.237-4.945-5.024S234.517,101.985,237.256,101.985z"/>
		<path fill="#CE3636" d="M223.025,101.985c2.74,0,4.963,2.256,4.963,5.042s-2.224,5.024-4.963,5.024
			c-2.739,0-4.945-2.237-4.945-5.024S220.286,101.985,223.025,101.985z"/>
	</g>
	<g>
	</g>
</g>
<rect x="10" y="474" fill="#D3EEF9" width="917" height="751"/>
<path fill="#F6C29D" d="M590.428,854.739l-45.667-38.466l-7.267-8.066v-9.601l6.4-9.6l7.2-7.2l12.8-6.4h9.6l11.2,5.601l5.601,7.2
	l208.933,130.399c-2.933-4.532-2.533-9.6-2.533-9.6v-12c0,0,3.601-13.2,4.8-15.4c1.2-2.2,1.2-2.2,1.2-2.2l4.601-7.8l5.6-5.399
	l3.8-2.4l22.8,25.2l9.801,12.2l54.8,66.399l-30.4,112l-1.6,5.601c0,0-7.4,16.6-8.4,18c-1,1.399-1,1.399-1,1.399l-1.6,4l-2.8,5.2
	l9,22l-171.4,58.4c0,0-45.4-7.601-70.6-32.601c-25.2-25-46-56.2-46-56.2s-5.233-12.533-17-32.8
	c-10.801-18.6-10.801-18.6-10.801-18.6l-3-4l-28.199-48.4c0,0-2.801-5,0-11.2c2.8-6.199,2.8-6.199,2.8-6.199l5-6.601c0,0,7-7,9-7.6
	c2-0.601,6-3.2,10.6-3.4c4.601-0.2,4.601-0.2,4.601-0.2l0,0l-10.601-17.399l1-14.4c0,0,5.601-10.8,12.2-15.8s15.4-8,15.4-8l-12.2-21
	c0,0-4.4-20.8,9.8-27.8s15.6-6,21.4-5.8c5.8,0.199,5.8,0.199,5.8,0.199L590.428,854.739z"/>
<path fill="#DEA67B" d="M757.099,1089.042l74.796-98.035c0,0-30.662-54.726-30.664-60.763s-0.002-6.037-0.002-6.037
	l-196.534,145.867c0,0,94.933,3.732,115.467,8.266c20.533,4.534,20.533,4.534,20.533,4.534l0,0L757.099,1089.042"/>
<rect x="680.779" y="1164.999" transform="matrix(0.9511 -0.3088 0.3088 0.9511 -324.6813 298.3422)" fill="#FFFFFF" width="198.979" height="20"/>
<polygon fill="#5E6C79" points="682.428,1216.207 889.428,1148.473 927.895,1228.207 685.494,1228.207 "/>
<ellipse fill="#FAFAFA" cx="760.303" cy="1231.434" rx="30.868" ry="27.227"/>
<path fill="#DEA67B" d="M560.261,1069.007c0,0,5.483-22.4,9.483-26.2s2.976-2.6,3.976-3.8s0.987-1.2,0.987-1.2l10.193-13.2
	l2.598-1.399l2.498,1.8l1.898,1.399v-12.6c0,0,5.8-9,3.8-14.2s-4.399-7.399-4.399-7.399l0.399-16.4c0,0,14.4-6.2,19.8-14
	c5.4-7.8,5-10.4,5.801-14.6c0.8-4.2,0.8-4.2,0.8-4.2l-2-3.8c0,0-17-11.4-16.8-12.801c0.199-1.399-6.2-3.199-7.4-5.399s0.2-10,0.2-10
	s16-1.2,21.8-12.4s4.2-20.899,4.2-20.899s-3.9-7.101-6.9-9.4s-3-2.3-3-2.3l-5.2-4c0,0-8.3-5.4-10.6-5.5
	c-2.3-0.101-0.4-67.9-0.4-67.9l-14.6-11.8l-7.6-1.7l-11.5,3.4l-8.4,4.899l-5.4,5.4l-3.1,4.9l-2.3,5l-0.5,7.399l3.8,7.7l4.6,3.6
	l3,3.7l26.301,21.9l7.699,6.6l4.4,3.3l1.2,0.601l1.1,1.2l0.5,0.899l-0.399,0.9l-7.801,0.399l-4.549,0.449l-4.551,2.151l-4.3,2.399
	l-2.7,1.7l-4.7,5.101l-3.5,8.5l-1,4l0.2,7.8l10.4,17.2l0.699,1.1l1.7,3.1c0,0,1.2,0.7-0.899,1.4c-2.101,0.7-11.7,4.2-15.601,8.3
	c-3.899,4.101-7.399,7.5-9,12.4c-1.6,4.899-2.3,17.2-2.3,17.2l9.6,16c0,0-8.6,1.899-11.199,3.1c-2.601,1.2-13.4,9.8-14.5,12.1
	c-1.101,2.301-5.7,5.101-6.101,12.9c-0.399,7.8,2.2,11.3,2.2,11.3L560.261,1069.007z"/>
<path fill="#31363A" d="M591.095,743.406v-22.399c0,0-1-9.8,15.2-12.4c19.939-3.2,20-2.8,20-2.8l67.6-2.4l79.2,2l23.6,2.801l8,1.6
	l6.64,3.2l3.761,4.8v12l0.322,20.8h2.077v24h-2.399l0.4,278.934l-1.467,6l-2.667,3.2l-5.466,3.467l-10.934,3.199l-10.8,0.934
	l-18.134,1.733l-24.267,0.759l-27.2,0.708l-61.333-1.867l-25.601-1.066l-17.6-2.134l-11.066-3.732l-5.334-4.667l-2.147-4.4l-1.186-8
	V832.207l-1.601-0.133v-57.468l2.4-0.399V743.406z"/>
<rect x="599.895" y="735.406" fill="#F2F2F2" width="205.6" height="300.801"/>
<ellipse fill="#4C4C4C" cx="704.333" cy="722.207" rx="7.239" ry="6"/>
<path opacity="0.3" fill="#5E6C79" d="M702.295,799.84c0,1.97-4.299,3.566-9.601,3.566h-64.8c-5.302,0-9.6-1.597-9.6-3.566v-36.866
	c0-1.97,4.298-3.567,9.6-3.567h64.8c5.302,0,9.601,1.598,9.601,3.567V799.84z"/>
<path fill="#D17905" d="M701.694,798.974c0,2.007-4.35,3.633-9.714,3.633h-65.572c-5.363,0-9.714-1.626-9.714-3.633v-37.534
	c0-2.006,4.351-3.633,9.714-3.633h65.572c5.364,0,9.714,1.627,9.714,3.633V798.974z"/>
<path opacity="0.3" fill="#5E6C79" d="M702.295,926.746c0,5.145-4.299,9.314-9.601,9.314h-64.8c-5.302,0-9.6-4.17-9.6-9.314v-96.247
	c0-5.145,4.298-9.315,9.6-9.315h64.8c5.302,0,9.601,4.171,9.601,9.315V926.746z"/>
<path fill="#FAFAFA" d="M701.694,925.288c0,5.238-4.35,9.484-9.714,9.484h-65.572c-5.363,0-9.714-4.246-9.714-9.484V827.29
	c0-5.238,4.351-9.483,9.714-9.483h65.572c5.364,0,9.714,4.245,9.714,9.483V925.288z"/>
<path fill="#FAFAFA" d="M701.694,830.122c0,0.601-4.35,1.087-9.714,1.087h-65.572c-5.363,0-9.714-0.486-9.714-1.087v-11.229
	c0-0.601,4.351-1.087,9.714-1.087h65.572c5.364,0,9.714,0.486,9.714,1.087V830.122z"/>
<path opacity="0.53" fill="#5E6C79" d="M701.694,832.51c0,0.716-4.35,1.297-9.714,1.297h-65.572c-5.363,0-9.714-0.581-9.714-1.297
	v-13.406c0-0.716,4.351-1.297,9.714-1.297h65.572c5.364,0,9.714,0.581,9.714,1.297V832.51z"/>
<polyline fill="#FAFAFA" stroke="#F05B4F" stroke-width="3" stroke-miterlimit="10" points="630.295,887.131 639.095,876.5 
	651.494,876.5 664.694,874.123 671.095,865.038 682.694,861.369 690.095,848.247 "/>
<path opacity="0.2" fill="#5E6C79" d="M656.694,911.007c0,1.547-1.254,2.8-2.8,2.8h-24.8c-1.546,0-2.8-1.253-2.8-2.8l0,0
	c0-1.547,1.254-2.8,2.8-2.8h24.8C655.44,908.207,656.694,909.46,656.694,911.007L656.694,911.007z"/>
<path opacity="0.2" fill="#5E6C79" d="M670.295,920.207c0,1.324-1.074,2.399-2.4,2.399h-36.8c-1.326,0-2.4-1.075-2.4-2.399l0,0
	c0-1.325,1.074-2.4,2.4-2.4h36.8C669.221,917.807,670.295,918.882,670.295,920.207L670.295,920.207z"/>
<path opacity="0.3" fill="#5E6C79" d="M797.494,867.547c0,5.144-4.298,9.313-9.6,9.313h-64.8c-5.302,0-9.601-4.17-9.601-9.313
	v-96.248c0-5.145,4.299-9.314,9.601-9.314h64.8c5.302,0,9.6,4.17,9.6,9.314V867.547z"/>
<path fill="#FAFAFA" d="M796.895,866.888c0,5.238-4.35,9.484-9.714,9.484h-65.572c-5.364,0-9.714-4.246-9.714-9.484v-97.997
	c0-5.238,4.35-9.484,9.714-9.484h65.572c5.364,0,9.714,4.246,9.714,9.484V866.888z"/>
<polyline fill="none" stroke="#FFFFFF" stroke-width="1.6" stroke-miterlimit="10" points="624.694,786.207 637.494,781.406 
	645.494,784.207 658.895,781.406 666.295,777.007 676.694,772.606 680.694,775.406 693.075,769.367 "/>
<path fill="#FCEE21" d="M755.408,783.417c-0.514,0-1.668,0.779-0.627,0.779C755.295,784.196,756.448,783.417,755.408,783.417z"/>
<path fill="#FCEE21" d="M756.371,812.871c-0.861,0-1.205,1.071-0.153,1.071C757.079,813.942,757.423,812.871,756.371,812.871z"/>
<path fill="#FCEE21" d="M728.994,802.566c-0.579,0-1.645,0.88-0.6,0.88C728.975,803.446,730.04,802.566,728.994,802.566z"/>
<g>
	<g>
		<g>
			<g>
				<path fill="#8C685D" d="M757.056,816.031l-17.53-24.129c5.33-3.872,10.941-5.695,17.53-5.695V816.031z"/>
			</g>
		</g>
		<g>
			<g>
				<path fill="#E6593B" d="M757.056,816.031l-28.365,9.217c-4.071-12.533,0.174-25.6,10.835-33.346L757.056,816.031z"/>
			</g>
		</g>
		<g>
			<g>
				<path fill="#FBAC25" d="M757.056,816.031v-29.824c16.472,0,29.825,13.353,29.825,29.824c0,16.473-13.354,29.825-29.825,29.825
					c-13.178,0-24.293-8.076-28.365-20.608L757.056,816.031z"/>
			</g>
		</g>
	</g>
	<g>
		<g>
		</g>
		<g>
		</g>
		<g>
		</g>
	</g>
</g>
<path fill="#F6C29D" d="M800.694,1157.807c0,0-57.2-27.6-49.6-52.4c7.6-24.8,12.399-36.399,12.399-36.399l24-34l23.601-25.2
	l20.8-18.8c0,0-42.2-66-35.4-93c6.801-27,16-31.2,16-31.2l4.2-3l87.4,104.8l-33.2,117.601l-13.2,26.399l8,21.4L800.694,1157.807z"/>
<path fill="#DEA67B" d="M801.761,881.541c0,0,13.601-18.935,14.934-17.734c1.334,1.2,1.334,1.2,1.334,1.2l86.066,103.6
	l-16.467,59.867l6.667-65.333L801.761,881.541z"/>
<path fill="#F6C29D" d="M521.229,1000.474l4,5.334l13.332,12l13.54,9.066l4.86,2.666l6.4,1.867c0,0,10.934-0.534,14.934-3.467
	s8.8-10.133,8.8-10.133l6.469-7.001l2.064-6.866c0,0,1.467-7.734-4.333-11.733c-5.801-4-18.026-14.399-18.026-14.399l-10.44-9.335
	c0,0-2.467-3.999-8.8-2.933c-6.334,1.066-14.934,4-14.934,4l-8.267,5.067l-6.4,7.467l-4.133,8.332L521.229,1000.474z"/>
<path fill="#F6C29D" d="M542.455,945.141l1.254,2.466l8.433,6.434l17.354,14.417l9.076,6.408c0,0,3.235,2.404,12.548,0.005
	c9.313-2.4,14.911-6.933,14.911-6.933l7.227-8.559l3.438-7.112v-10.46l-5.2-5.746l-9.199-7.32l-18.134-14.134
	c0,0-7.999-4.8-12.533-3.2c-4.533,1.601-4.533,1.601-4.533,1.601l-9.051,4.134l-4.815,3.066l-5.067,5.333l-2.933,4.8l-2.534,4.267
	l-0.666,7.201L542.455,945.141z"/>
<polygon fill="#F6C29D" points="557.018,887.788 557.523,876.664 562.842,867.502 571.102,860.435 580.743,857.007 593.494,857.007 
	606.295,863.807 613.095,870.205 617.761,876.741 618.297,884.741 616.694,891.682 613.761,897.807 611.361,900.741 608.215,905.14 
	602.828,907.141 596.919,910.371 592.095,911.406 584.694,911.406 577.761,907.674 570.828,902.606 564.961,898.606 
	560.161,893.007 "/>
<path fill="#F6C29D" d="M564.295,1023.406l7.6-4l8.4-8.6l6.8-10.2l-11.4-8.8l-5.267-1.066l-5.467,0.666l-7.066,4.534
	c0,0-5.334,4.399-5.733,9.066c-0.4,4.666,1.333,9.866,1.333,9.866l5.334,4.667L564.295,1023.406z"/>
<path fill="#F6C29D" d="M585.628,968.473c0,0,13.733-7.732,16.933-12.266c3.2-4.534,6.4-10.934,6.4-10.934l-8.4-6.667
	c0,0-10.133-4.933-14.933-1.066s-8.399,7.601-8.399,7.601s-4.668,5.865-3.867,9.332c0.8,3.468,5.199,9.067,6.399,9.468
	c1.2,0.399,2.4,1.6,4.134,3.066C585.628,968.473,585.628,968.473,585.628,968.473z"/>
<path fill="#F6C29D" d="M590.428,905.14c0,0,11.866-8.266,16.533-14.133s4.667-5.867,4.667-5.867l1.467-4l-8.534-6.666
	c0,0-8.133-2-14.133,2.8c-6,4.801-8,8.4-8,8.4s-2.133,3.732-1.6,6.933s0.533,3.2,0.533,3.2s-0.134,1.2,2,3.867
	C585.494,902.34,590.428,905.14,590.428,905.14z"/>
<path fill="#DEA67B" d="M820.428,867.673c0,0-5.268,3.934-5,6.866c0.267,2.934,1.69,6.434,2.429,6.968
	c0.738,0.533,0.721,0.55,0.721,0.55l7.192,12.542c0,0,2.396,2.804,4.795,3.07c2.4,0.268,2.396,0.138,2.396,0.138h7.733
	c0,0,4.001-1.2,4.134-1.333L820.428,867.673z"/>
<path fill="#DEA67B" d="M787.494,1150.406c0,0-43.6-21.3-12-77.3c31.601-56,48.553-77.849,48.553-77.849
	s-42.952,43.773-45.752,48.174c-2.801,4.4-2.801,4.388-2.801,4.388l-20,35.193c0,0-3.6,12.794-3.6,16.394c0,3.601,0,4,0,4
	s2.8,16.801,4.4,19.2c1.6,2.4,9.6,14,11.6,15.601c2,1.6,2,1.6,2,1.6L787.494,1150.406z"/>
<rect id="_x3C_Sector_x3E__3_" y="474" fill="none" width="939" height="751"/>
<rect id="_x3C_Sector_x3E__2_" fill="none" width="939" height="474"/>
<rect x="460" y="131" display="none" fill="#E6E6E6" width="214" height="344"/>
<g id="XMLID_4_" display="none">
	<g display="inline">
		<path fill="#232323" d="M670.496,507.49c-0.01,0-0.02,0-0.029,0c-0.431,0.04-0.86,0.061-1.301,0.061h-203.66
			c-0.01,0-0.01,0-0.01,0c-7-0.011-12.66-5.37-12.66-12v-414c0-5.18,3.46-9.59,8.31-11.27c1.36-0.47,2.83-0.73,4.36-0.73h203.66
			c1.75,0,3.42,0.34,4.931,0.94c4.55,1.82,7.739,6.09,7.739,11.06v414C681.836,501.761,676.866,506.86,670.496,507.49z
			 M673.836,470.551v-361h-212v361H673.836z M576.757,84.22c0-4.24-3.561-7.67-7.96-7.67c-4.4,0-7.961,3.43-7.961,7.67
			c0,4.24,3.561,7.67,7.961,7.67C573.196,91.89,576.757,88.46,576.757,84.22z"/>
		<path fill="#232323" d="M674.387,69.81l-0.29,0.68c-1.511-0.6-3.181-0.94-4.931-0.94h-203.66c-1.53,0-3,0.26-4.36,0.73l-0.09-0.26
			c15.39-5.36,59.029-12.23,105.34-12.27c0.15,0,0.29,0,0.439,0C616.477,57.791,661.326,64.15,674.387,69.81z"/>
		<path fill="#232323" d="M669.166,507.551c0.44,0,0.87-0.021,1.301-0.061c-17.28,5.16-58.021,10.3-102.631,10.33
			c-0.149,0-0.289,0-0.439,0c-43.37-0.04-84.25-5.22-101.89-10.27H669.166z"/>
		<path fill="#444444" d="M568.797,76.55c4.399,0,7.96,3.43,7.96,7.67c0,4.24-3.561,7.67-7.96,7.67c-4.4,0-7.961-3.43-7.961-7.67
			C560.836,79.98,564.396,76.55,568.797,76.55z"/>
	</g>
	<g display="inline">
	</g>
</g>
</svg>
